<svg width="74" height="72" viewBox="0 0 74 72" fill="none" xmlns="http://www.w3.org/2000/svg">
<g clip-path="url(#clip0_14_179)">
<path d="M24.3747 21.5042C24.671 21.5042 24.9274 21.7104 24.991 21.9997C25.1664 22.7981 25.1791 24.1097 24.6141 25.16C24.322 25.7029 23.8683 26.1864 23.2031 26.4657C22.5432 26.7428 21.7375 26.793 20.7823 26.587C19.5609 26.3236 18.3363 25.627 17.1951 24.7334C16.0477 23.8348 14.9472 22.7076 13.9724 21.5318C12.9967 20.355 12.137 19.1176 11.4739 17.9902C10.8173 16.8738 10.3306 15.8268 10.132 15.0365C10.059 14.7458 10.2005 14.4439 10.4706 14.314C10.7407 14.1842 11.0649 14.2623 11.2463 14.5009C12.087 15.6071 14.0213 17.3713 16.4539 18.8597C18.8877 20.3488 21.7272 21.5042 24.3747 21.5042Z" fill="white" stroke="black" stroke-width="1.26191" stroke-linejoin="round"/>
<path fill-rule="evenodd" clip-rule="evenodd" d="M48.4887 52.6749C51.8537 49.2159 53.8899 44.7033 53.8899 39.7671C53.8899 28.8759 43.9775 20.0469 31.7499 20.0469C19.5224 20.0469 9.60998 28.8759 9.60998 39.7671C9.60998 40.805 9.69999 41.8241 9.87343 42.8186C5.25341 44.2149 2.08057 47.1039 2.08057 50.4413C2.08057 55.1444 8.38116 58.9569 16.1533 58.9569C18.6361 58.9569 20.9687 58.5679 22.9937 57.885C25.6793 58.9161 28.6397 59.4874 31.7499 59.4874C38.4356 59.4874 44.4292 56.8479 48.4887 52.6749Z" fill="white"/>
<mask id="mask0_14_179" style="mask-type:luminance" maskUnits="userSpaceOnUse" x="0" y="18" width="57" height="44">
<path d="M56.0806 18.0469H0.0805664V61.0469H56.0806V18.0469Z" fill="white"/>
<path fill-rule="evenodd" clip-rule="evenodd" d="M48.4887 52.6749C51.8537 49.2159 53.8899 44.7033 53.8899 39.7671C53.8899 28.8759 43.9775 20.0469 31.7499 20.0469C19.5224 20.0469 9.60998 28.8759 9.60998 39.7671C9.60998 40.805 9.69999 41.8241 9.87343 42.8186C5.25341 44.2149 2.08057 47.1039 2.08057 50.4413C2.08057 55.1444 8.38116 58.9569 16.1533 58.9569C18.6361 58.9569 20.9687 58.5679 22.9937 57.885C25.6793 58.9161 28.6397 59.4874 31.7499 59.4874C38.4356 59.4874 44.4292 56.8479 48.4887 52.6749Z" fill="black"/>
</mask>
<g mask="url(#mask0_14_179)">
<path d="M9.87344 42.8185L10.2385 44.0264L11.3086 43.703L11.1166 42.6017L9.87344 42.8185ZM22.9937 57.8849L23.446 56.7069L23.0214 56.5439L22.5905 56.6892L22.9937 57.8849ZM52.628 39.767C52.628 44.3431 50.743 48.5479 47.5842 51.7949L49.3932 53.5548C52.9645 49.8837 55.1518 45.0633 55.1518 39.767H52.628ZM31.7499 21.3087C43.4219 21.3087 52.628 29.7061 52.628 39.767H55.1518C55.1518 28.0456 44.5332 18.7849 31.7499 18.7849V21.3087ZM10.8719 39.767C10.8719 29.7061 20.078 21.3087 31.7499 21.3087V18.7849C18.9667 18.7849 8.34808 28.0456 8.34808 39.767H10.8719ZM11.1166 42.6017C10.9555 41.6783 10.8719 40.7317 10.8719 39.767H8.34808C8.34808 40.878 8.44445 41.9696 8.6303 43.0353L11.1166 42.6017ZM3.34249 50.4412C3.34249 47.9706 5.77785 45.3746 10.2385 44.0264L9.50836 41.6105C4.729 43.055 0.818665 46.237 0.818665 50.4412H3.34249ZM16.1533 57.6949C12.4585 57.6949 9.17439 56.7861 6.85569 55.383C4.51351 53.9657 3.34249 52.1806 3.34249 50.4412H0.818665C0.818665 53.4049 2.79794 55.8775 5.5491 57.5423C8.32374 59.2213 12.076 60.2187 16.1533 60.2187V57.6949ZM22.5905 56.6892C20.7028 57.3257 18.5071 57.6949 16.1533 57.6949V60.2187C18.7651 60.2187 21.2345 59.8098 23.3969 59.0807L22.5905 56.6892ZM31.7499 58.2254C28.7946 58.2254 25.9875 57.6826 23.446 56.7069L22.5414 59.063C25.3711 60.1495 28.4849 60.7492 31.7499 60.7492V58.2254ZM47.5842 51.7949C43.7692 55.7164 38.1051 58.2254 31.7499 58.2254V60.7492C38.7662 60.7492 45.0891 57.9791 49.3932 53.5548L47.5842 51.7949Z" fill="black"/>
</g>
<path d="M39.0719 21.5044C38.7762 21.5044 38.5201 21.7098 38.456 21.9985C38.2783 22.798 38.2654 24.1113 38.8376 25.1628C39.1334 25.7064 39.592 26.1887 40.2622 26.4669C40.9266 26.7427 41.7385 26.7931 42.7026 26.5875C43.9355 26.3247 45.1727 25.6292 46.3268 24.7357C47.487 23.8375 48.6 22.7105 49.586 21.5348C50.5728 20.358 51.4423 19.1206 52.1131 17.9931C52.7773 16.8767 53.2698 15.8294 53.4709 15.0383C53.5446 14.7482 53.4043 14.4462 53.135 14.3154C52.8657 14.1846 52.5416 14.261 52.3592 14.4983C51.5085 15.6047 49.5517 17.3693 47.0903 18.8582C44.6282 20.3476 41.7536 21.5044 39.0719 21.5044Z" fill="white" stroke="black" stroke-width="1.26191" stroke-linejoin="round"/>
<path d="M9.27314 46.8448L9.50256 46.4782C9.93016 45.7949 9.38093 45.0323 8.6413 45.3527C7.81402 45.7111 6.82193 46.2689 5.87016 47.1255C5.44294 47.51 5.12138 47.8905 4.88074 48.2545C3.88058 49.7674 5.42408 51.2381 7.23765 51.2541C8.19159 51.2626 9.28691 51.2174 10.3799 51.0555C11.8292 50.8408 13.0434 50.1513 13.916 49.4901C14.561 49.0012 14.1621 48.1301 13.3534 48.1626L10.1134 48.2925C9.35322 48.323 8.86957 47.4897 9.27314 46.8448Z" fill="black"/>
<path d="M22.3604 55.876C23.8648 55.9851 25.2756 55.826 26.3472 55.456C26.8819 55.2713 27.362 55.0239 27.7263 54.7047C28.0935 54.383 28.3749 53.957 28.4127 53.4356C28.4505 52.9141 28.2335 52.452 27.9166 52.0806C27.6022 51.7122 27.1628 51.3981 26.6604 51.1383C25.6534 50.6175 24.2803 50.2564 22.7758 50.1473C21.2714 50.0382 19.8606 50.1973 18.789 50.5674C18.2544 50.752 17.7742 50.9994 17.4099 51.3186C17.0428 51.6403 16.7613 52.0664 16.7235 52.5878C16.6857 53.1092 16.9027 53.5713 17.2196 53.9427C17.534 54.3111 17.9735 54.6252 18.4759 54.8851C19.4829 55.4058 20.8559 55.7669 22.3604 55.876Z" fill="white" stroke="black" stroke-width="1.26191"/>
<path d="M17.34 52.8159L27.7706 53.5724" stroke="black" stroke-width="1.26191"/>
<path d="M24.3214 50.116L23.9453 55.3013" stroke="black" stroke-width="1.26191"/>
<path d="M20.5659 50.6199L20.1899 55.8052" stroke="black" stroke-width="1.26191"/>
<path fill-rule="evenodd" clip-rule="evenodd" d="M57.6261 54.0121C57.135 53.9722 56.7516 53.8135 56.5049 53.525C55.2906 52.1044 57.8521 48.0729 62.2261 44.5206C66.6002 40.9682 71.1305 39.2401 72.3449 40.6607C73.078 41.5184 72.435 43.3275 70.8479 45.4083C71.665 45.4936 72.234 45.7575 72.4517 46.211C73.1324 47.6292 70.1196 50.3642 65.7223 52.3196C62.4196 53.7884 59.2752 54.3997 57.6261 54.0121Z" fill="url(#paint0_linear_14_179)"/>
<mask id="mask1_14_179" style="mask-type:luminance" maskUnits="userSpaceOnUse" x="53" y="34" width="24" height="26">
<path d="M76.064 34.8259H53.3934V59.6533H76.064V34.8259Z" fill="white"/>
<path fill-rule="evenodd" clip-rule="evenodd" d="M57.6261 54.0121C57.135 53.9722 56.7516 53.8135 56.5049 53.525C55.2906 52.1044 57.8521 48.0729 62.2261 44.5206C66.6002 40.9682 71.1305 39.2401 72.3449 40.6607C73.078 41.5184 72.435 43.3275 70.8479 45.4083C71.665 45.4936 72.234 45.7575 72.4517 46.211C73.1324 47.6292 70.1196 50.3642 65.7223 52.3196C62.4196 53.7884 59.2752 54.3997 57.6261 54.0121Z" fill="black"/>
</mask>
<g mask="url(#mask1_14_179)">
<path d="M57.6261 54.012L57.9148 52.7835C57.8534 52.7691 57.791 52.7592 57.7282 52.7541L57.6261 54.012ZM70.8479 45.4081L69.8445 44.6427C69.5678 45.0055 69.5085 45.4895 69.6893 45.9084C69.8702 46.3272 70.2631 46.6158 70.7169 46.6632L70.8479 45.4081ZM57.7282 52.7541C57.5875 52.7427 57.5078 52.7176 57.4715 52.702C57.44 52.6885 57.4475 52.6855 57.4642 52.705L55.5457 54.3448C56.0816 54.9717 56.8316 55.2134 57.524 55.2696L57.7282 52.7541ZM57.4642 52.705C57.5255 52.7768 57.4073 52.7334 57.5045 52.2863C57.5986 51.854 57.859 51.2479 58.335 50.4987C59.279 49.013 60.9099 47.215 63.0217 45.4999L61.4306 43.5409C59.1683 45.3782 57.3314 47.3721 56.2048 49.1453C55.6454 50.0257 55.2198 50.9158 55.0384 51.7499C54.8602 52.5692 54.8772 53.5626 55.5457 54.3448L57.4642 52.705ZM63.0217 45.4999C65.1329 43.7854 67.244 42.5441 68.9202 41.9047C69.7645 41.5827 70.4326 41.4387 70.9004 41.4262C71.3906 41.4131 71.4384 41.5421 71.3857 41.4805L73.3041 39.8406C72.6442 39.0686 71.6703 38.8809 70.8329 38.9033C69.973 38.9263 69.0075 39.1701 68.0207 39.5465C66.0346 40.3041 63.6935 41.7031 61.4306 43.5409L63.0217 45.4999ZM71.3857 41.4805C71.3132 41.3957 71.4919 41.4944 71.2668 42.1841C71.0603 42.8168 70.5933 43.6611 69.8445 44.6427L71.8512 46.1734C72.6896 45.0743 73.3376 43.9736 73.6661 42.9672C73.976 42.0177 74.1096 40.783 73.3041 39.8406L71.3857 41.4805ZM70.7169 46.6632C71.0333 46.6962 71.2227 46.7571 71.3185 46.8041C71.4057 46.847 71.3576 46.8476 71.314 46.7569L73.5893 45.6649C73.0698 44.5825 71.8893 44.248 70.9789 44.153L70.7169 46.6632ZM71.314 46.7569C71.2372 46.5967 71.3566 46.5819 71.1885 46.9019C71.0285 47.2067 70.6953 47.628 70.1431 48.1293C69.05 49.1215 67.321 50.2274 65.2095 51.1664L66.2351 53.4725C68.5208 52.456 70.4969 51.2167 71.8394 49.998C72.5049 49.3939 73.0722 48.7433 73.423 48.0754C73.7658 47.4226 74.0066 46.5342 73.5893 45.6649L71.314 46.7569ZM65.2095 51.1664C63.6302 51.8687 62.1053 52.3583 60.8007 52.6257C59.4622 52.9 58.4759 52.9154 57.9148 52.7835L57.3374 55.2403C58.4254 55.496 59.8358 55.3996 61.3075 55.098C62.813 54.7895 64.5117 54.2389 66.2351 53.4725L65.2095 51.1664Z" fill="black"/>
</g>
<path d="M14.8446 42.3283C16.674 42.3283 18.1571 40.1037 18.1571 37.3595C18.1571 34.6152 16.674 32.3906 14.8446 32.3906C13.0152 32.3906 11.5321 34.6152 11.5321 37.3595C11.5321 40.1037 13.0152 42.3283 14.8446 42.3283Z" fill="black"/>
<path d="M14.9235 39.9633C15.7511 39.9633 16.422 38.798 16.422 37.3605C16.422 35.9231 15.7511 34.7578 14.9235 34.7578C14.0959 34.7578 13.425 35.9231 13.425 37.3605C13.425 38.798 14.0959 39.9633 14.9235 39.9633Z" fill="white"/>
<path d="M27.7795 42.3283C29.609 42.3283 31.092 40.1037 31.092 37.3595C31.092 34.6152 29.609 32.3906 27.7795 32.3906C25.9501 32.3906 24.467 34.6152 24.467 37.3595C24.467 40.1037 25.9501 42.3283 27.7795 42.3283Z" fill="black"/>
<path d="M27.8581 39.9633C28.6857 39.9633 29.3566 38.798 29.3566 37.3605C29.3566 35.9231 28.6857 34.7578 27.8581 34.7578C27.0305 34.7578 26.3596 35.9231 26.3596 37.3605C26.3596 38.798 27.0305 39.9633 27.8581 39.9633Z" fill="white"/>
<path d="M34.2463 54.3156C34.2463 51.2381 35.3257 47.5016 37.9302 45.6216C40.1969 43.9853 43.0541 43.828 45.7611 44.284" stroke="black" stroke-width="1.26191"/>
</g>
<defs>
<linearGradient id="paint0_linear_14_179" x1="66.7203" y1="38.9752" x2="63.2492" y2="55.4809" gradientUnits="userSpaceOnUse">
<stop stop-color="#189C15"/>
<stop offset="1" stop-color="white"/>
</linearGradient>
<clipPath id="clip0_14_179">
<rect width="74" height="72" fill="white"/>
</clipPath>
</defs>
</svg>
